<svg width="239" height="240" viewBox="0 0 239 240" fill="none" xmlns="http://www.w3.org/2000/svg">
<path d="M215.872 60.6919C221.818 60.6919 227.521 63.0539 231.725 67.2585C235.93 71.463 238.292 77.1657 238.292 83.1118V150.372C238.292 199.909 198.149 205.888 148.612 205.888C99.0747 205.888 58.9324 199.909 58.9324 150.372V83.1118C58.9324 77.1657 61.2945 71.463 65.499 67.2585C69.7036 63.0539 75.4062 60.6919 81.3523 60.6919" fill="#BB93E1"/>
<path d="M215.872 60.6406H206.477C202.933 60.6382 199.439 61.4771 196.282 63.0881C193.126 64.6991 190.396 67.0362 188.319 69.9075L130.001 150.406C123.049 160.006 109.648 162.781 99.7921 156.179C97.4064 154.58 95.3593 152.526 93.7676 150.135C92.1759 147.744 91.0709 145.063 90.5157 142.245C89.9605 139.427 89.966 136.527 90.5318 133.711C91.0976 130.895 92.2128 128.218 93.8135 125.833C93.9587 125.611 94.1124 125.398 94.2662 125.184L141.019 60.6406H81.3694C78.4274 60.6406 75.5142 61.22 72.7961 62.3458C70.0781 63.4717 67.6084 65.1219 65.5281 67.2022C63.4478 69.2825 61.7977 71.7522 60.6718 74.4703C59.546 77.1883 58.9666 80.1014 58.9666 83.0434V149.125C58.9666 198.542 98.5281 239.496 147.972 239.863C171.744 240.043 194.616 230.776 211.559 214.099C228.502 197.422 238.13 174.7 238.326 150.927V83.0434C238.325 80.1003 237.744 77.1862 236.617 74.4675C235.489 71.7489 233.838 69.279 231.756 67.1987C229.674 65.1184 227.203 63.4685 224.483 62.3432C221.764 61.218 218.849 60.6394 215.906 60.6406H215.872Z" fill="#5F00B5"/>
<path d="M21.096 168.256C15.5093 168.263 10.1485 166.051 6.19248 162.106C2.23644 158.161 0.00905425 152.807 0 147.22V21.0278C0.0044828 18.2619 0.553728 15.5239 1.61633 12.9703C2.67894 10.4167 4.23405 8.09737 6.19301 6.14476C8.15196 4.19215 10.4764 2.64451 13.0335 1.59019C15.5905 0.535877 18.3302 -0.00446233 21.096 2.77551e-05H84.3929C131.001 2.77551e-05 168.786 37.6313 168.786 84.1196C168.786 130.608 131.001 168.256 84.3929 168.256H21.096Z" fill="#BB93E1"/>
<mask id="mask0_32_482" style="mask-type:alpha" maskUnits="userSpaceOnUse" x="60" y="60" width="179" height="180">
<path d="M60.6406 80.6406C60.6406 69.5949 69.5949 60.6406 80.6406 60.6406H218.292C229.338 60.6406 238.292 69.5949 238.292 80.6406V160C238.292 204.183 202.475 240 158.292 240H140.641C96.4578 240 60.6406 204.183 60.6406 160V80.6406Z" fill="#524175"/>
</mask>
<g mask="url(#mask0_32_482)">
<g filter="url(#filter0_d_32_482)">
<path d="M22.7102 168.256C17.1401 168.256 11.7982 166.043 7.85954 162.105C3.92087 158.166 1.70813 152.824 1.70813 147.254V21.0021C1.70813 15.432 3.92087 10.0901 7.85954 6.15141C11.7982 2.21274 17.1401 0 22.7102 0H85.8362C107.941 0.314985 129.033 9.31705 144.553 25.0599C160.073 40.8027 168.774 62.0213 168.774 84.1281C168.774 106.235 160.073 127.454 144.553 143.196C129.033 158.939 107.941 167.941 85.8362 168.256H22.7102Z" fill="#7F39FB"/>
</g>
</g>
<defs>
<filter id="filter0_d_32_482" x="-22.2919" y="-24" width="215.066" height="216.256" filterUnits="userSpaceOnUse" color-interpolation-filters="sRGB">
<feFlood flood-opacity="0" result="BackgroundImageFix"/>
<feColorMatrix in="SourceAlpha" type="matrix" values="0 0 0 0 0 0 0 0 0 0 0 0 0 0 0 0 0 0 127 0" result="hardAlpha"/>
<feOffset/>
<feGaussianBlur stdDeviation="12"/>
<feComposite in2="hardAlpha" operator="out"/>
<feColorMatrix type="matrix" values="0 0 0 0 0 0 0 0 0 0 0 0 0 0 0 0 0 0 0.5 0"/>
<feBlend mode="normal" in2="BackgroundImageFix" result="effect1_dropShadow_32_482"/>
<feBlend mode="normal" in="SourceGraphic" in2="effect1_dropShadow_32_482" result="shape"/>
</filter>
</defs>
</svg>
